PathFileType	4	(X/Y/Z)	/Users/mathieubourgeois/Desktop/Analyse/Traitement/Sujet_03/Data/Transformed_Sujet_03_velo_80.trc
DataRate	CameraRate	NumFrames	NumMarkers	Units	OrigDataRate	OrigDataStartFrame	OrigNumFrames
120.000000	120.000000	4	36	mm	120.000000	467	1868
Frame#	Time	RFHD			LFHD			RBHD			LBHD			C7			CLAV			RSHO			LSHO			STRN			T10			RBWT			LBWT			RFWT			LFWT			RKNI			LKNI			RKNE			LKNE			LANI			RANI			LANE			RANE			LTOE			RTOE			LHEE			RHEE			RHUM			LHUM			RRAD			LRAD			RWRA			RWRB			LWRA			LWRB			LCAR			RCAR			
		X1	Y1	Z1	X2	Y2	Z2	X3	Y3	Z3	X4	Y4	Z4	X5	Y5	Z5	X6	Y6	Z6	X7	Y7	Z7	X8	Y8	Z8	X9	Y9	Z9	X10	Y10	Z10	X11	Y11	Z11	X12	Y12	Z12	X13	Y13	Z13	X14	Y14	Z14	X15	Y15	Z15	X16	Y16	Z16	X17	Y17	Z17	X18	Y18	Z18	X19	Y19	Z19	X20	Y20	Z20	X21	Y21	Z21	X22	Y22	Z22	X23	Y23	Z23	X24	Y24	Z24	X25	Y25	Z25	X26	Y26	Z26	X27	Y27	Z27	X28	Y28	Z28	X29	Y29	Z29	X30	Y30	Z30	X31	Y31	Z31	X32	Y32	Z32	X33	Y33	Z33	X34	Y34	Z34	X35	Y35	Z35	X36	Y36	Z36	

468	3.891666666666667	153.0000610351562	1547.544311523438	105.057403564453	134.5621032714844	1544.58154296875	-47.15682601928719	42.91949081420897	1620.23486328125	120.4834976196288	16.43601799011231	1633.486450195312	-26.20841789245615	-109.013427734375	1545.366088867188	47.73984146118153	-76.71479034423828	1390.753784179688	45.30868911743155	-50.15664291381839	1482.048706054688	213.7823944091796	-81.07308959960936	1500.695190429688	-136.1761169433595	-179.3782653808594	1255.199096679688	47.7832031249999	-328.7117614746094	1453.25244140625	44.9343223571776	-531.4379272460938	1264.272338867188	114.9056015014647	-531.6817626953125	1260.39794921875	-8.188377380371236	-382.0501098632812	1196.871704101562	179.8372344970702	-380.0450134277344	1179.792358398438	-65.44827270507824	-67.21410369873048	822.7203369140625	130.1928558349609	-132.4853363037109	744.267822265625	-53.23130035400396	-90.18987274169925	863.6740112304688	243.8886413574218	-131.6927795410156	791.6888427734375	-161.3335723876954	-401.9996032714844	481.9116516113281	-56.80794525146492	-143.2260894775391	455.9201965332031	118.7474365234375	-428.7456970214844	467.5734252929688	-142.7023925781251	-166.9027252197266	433.9283447265625	206.4994659423828	-315.5091247558594	294.9684143066406	-95.35024261474615	26.57275962829588	343.5898742675781	144.7359161376953	-497.5267333984375	488.6183471679688	-100.4319229125977	-237.3176727294922	409.3470153808594	161.3356170654296	26.6167068481445	1187.9921875	236.8119812011718	7.627809524536151	1193.6884765625	-146.1387939453126	79.30427551269527	1213.24560546875	293.1421508789062	54.34680175781253	1226.906005859375	-205.9358520507813	282.9034118652344	1041.476806640625	216.5759887695312	269.7355651855468	1030.079956054688	296.8705749511719	247.6010284423828	1060.472534179688	-129.7648620605469	227.8826293945313	1045.283935546875	-206.936019897461	325.4748840332031	1033.741943359375	-223.6337127685547	373.0135803222656	1030.863525390625	300.2510375976562	
469	3.9	152.9921569824219	1547.905517578125	104.7468872070312	134.6743621826172	1545.087036132812	-47.50743484497078	42.7455596923828	1620.37841796875	120.1370468139647	16.37322616577149	1633.726440429688	-26.55115699768076	-108.9267120361328	1545.462158203125	47.0698127746581	-76.58537292480469	1390.82080078125	44.75396347045889	-50.03328323364261	1482.147827148438	213.2562561035155	-80.83013916015624	1500.779663085938	-136.6271972656251	-179.1316986083984	1255.186401367188	47.33743667602529	-328.5907287597656	1453.297607421875	44.56850051879869	-531.0813598632812	1264.137573242188	115.0740280151366	-531.6337280273438	1260.521484375	-8.056098937988423	-381.7853393554688	1196.506713867188	179.804473876953	-379.8964538574219	1179.941650390625	-65.45964813232433	-73.34935760498048	811.3001708984375	129.803970336914	-126.9670715332031	751.5504150390625	-53.94220733642584	-96.14565277099612	852.9758911132812	243.5184478759765	-126.0160522460937	798.5052490234375	-162.1833496093751	-402.8865966796875	495.4572448730469	-55.74769592285164	-139.5873565673828	443.1252136230469	119.7254028320312	-428.7182006835938	480.8726501464844	-142.7071380615235	-166.5250396728516	421.2699279785156	206.357437133789	-315.1038513183594	308.9045104980469	-94.97584533691412	26.85094642639158	329.8052368164062	144.4000244140625	-497.6039733886719	502.4186401367188	-100.5113830566407	-236.8987731933594	397.3356018066406	162.1976623535156	26.83429718017575	1188.110107421875	236.2252197265624	7.737559795379656	1193.781005859375	-146.3953552246095	79.40022277832027	1213.352416992188	292.6565856933593	54.49942398071292	1226.904174804688	-206.2232971191407	283.0186767578125	1041.423583984375	216.5355072021484	269.7578735351562	1030.100219726562	296.8209533691406	247.6496124267578	1060.46533203125	-129.7989501953125	227.955062866211	1045.2109375	-206.9854736328125	325.5585327148438	1033.664794921875	-223.6312561035157	373.0620117187499	1030.84326171875	300.275634765625	
470	3.908333333333333	153.0686492919922	1548.27490234375	104.4011154174804	134.8942565917969	1545.578369140625	-47.84770584106453	42.65036392211913	1620.542724609375	119.8006744384765	16.3833065032959	1633.997192382812	-26.88530349731455	-108.7859268188477	1545.59326171875	46.51129150390614	-76.34849548339844	1390.94921875	44.1468849182128	-49.80713272094729	1482.266723632812	212.6684112548827	-80.47544860839842	1500.866821289062	-137.1379699707032	-178.9207153320312	1255.257934570312	46.76286315917959	-328.4007263183594	1453.373779296875	44.14364624023424	-530.6838989257812	1264.07666015625	115.309715270996	-531.5238037109375	1260.708129882812	-7.879124641418599	-381.4300842285156	1196.227294921875	179.7748565673827	-379.7395629882812	1180.120849609375	-65.49697113037121	-79.85412597656251	799.9175415039062	129.3025360107421	-120.1716537475586	759.5223388671875	-54.71260833740241	-102.5311813354492	842.3378295898438	243.0188598632812	-120.3473968505859	805.732666015625	-162.9888000488282	-402.5907592773438	508.9123840332031	-54.99609756469734	-140.0101013183594	430.732177734375	119.6103820800781	-427.8761596679688	494.0161743164062	-142.7334136962891	-167.2236022949219	408.9560241699219	206.2678527832031	-313.6812744140625	322.9163208007812	-94.56687164306646	26.10668754577635	316.0807189941406	144.1901092529297	-496.9326782226562	515.9821166992188	-100.7096405029298	-236.3158721923828	384.2032775878906	159.8904724121093	27.08518791198728	1188.2294921875	235.5586700439452	7.950641632080096	1193.89599609375	-146.6858367919923	79.56461334228511	1213.456298828125	292.1697998046874	54.78053283691409	1226.94287109375	-206.4635162353516	283.1423950195312	1041.330444335938	216.563003540039	269.7836303710937	1030.072509765625	296.8172302246094	247.7572937011719	1060.458862304688	-129.7909851074219	228.1319274902344	1045.142700195312	-206.9507598876953	325.7060852050781	1033.587890625	-223.5575408935547	373.3642578124999	1030.548583984375	300.0426330566406	
471	3.916666666666667	153.1788482666016	1548.645263671875	104.0637435913085	135.1837158203125	1546.060302734375	-48.17742538452156	42.63338088989256	1620.712646484375	119.4156646728515	16.51689529418946	1634.27783203125	-27.31140518188486	-108.5589065551758	1545.781494140625	45.80238342285146	-76.09178161621094	1391.087158203125	43.63497543334952	-49.52724456787112	1482.409301757812	212.1037445068359	-80.08349609374999	1501.023071289062	-137.6636352539063	-178.6157989501953	1255.3603515625	46.13130569457998	-328.1032104492188	1453.459594726562	43.7211990356444	-530.1845092773438	1264.04833984375	115.6280364990233	-531.3826293945312	1260.942626953125	-7.625498771667623	-380.9735717773438	1195.947143554688	179.774459838867	-379.5973510742188	1180.351440429688	-65.52937316894543	-88.88094329833986	788.5780029296875	128.0329589843749	-115.9049835205078	767.1471557617188	-55.23833084106452	-109.2553329467774	831.8037719726562	242.369644165039	-114.6315307617187	813.3284912109375	-163.7115936279297	-400.2978210449219	521.882568359375	-56.12654113769539	-144.9453887939453	418.8358764648438	118.3421859741211	-425.6098937988281	507.0151062011719	-143.6289367675782	-168.7982025146485	396.9429321289062	206.1358795166015	-311.5789184570312	336.2481384277344	-94.65383148193365	24.27509117126463	302.5010070800781	144.0244598388672	-495.541015625	529.1494140625	-100.9381027221681	-237.6724548339844	372.5307922363281	160.0059509277343	27.38183212280271	1188.369140625	234.9208984374999	8.263389587402362	1194.034301757812	-147.055648803711	79.77075195312496	1213.527221679688	291.6632080078124	55.14894104003909	1227.031372070312	-206.7098388671876	283.3413391113281	1041.218139648438	216.6389617919922	269.8151550292968	1030.011840820312	296.8595886230469	247.880844116211	1060.458618164062	-129.7110137939453	228.3521118164063	1045.09228515625	-206.8945007324219	325.9114990234375	1033.523071289062	-223.4343566894532	373.4655456542968	1030.411254882812	300.1843872070312	
